#N canvas 588 191 1300 750 12;
#X obj 180 334 server 8090;
#X msg 332 58 start;
#X obj 176 58 delay 1000 1 msec;
#X msg 305 130 stop;
#X obj 332 83 s server;
#X obj 305 157 s server;
#X obj 180 310 r server;
#X obj 488 158 del 5000 1 msec;
#X msg 488 270 \; pd quit;
#X msg 276 197 port 8000;
#X obj 276 249 s server;
#X msg 232 197 ssl 1;
#X msg 198 229 ssl 0;
#X obj 198 267 s server;
#X obj 176 33 t b b b, f 45;
#X obj 176 86 t b b;
#X obj 488 200 t b b;
#X obj 176 138 t b b b b, f 10;
#X obj 560 269 print test;
#X msg 560 236 failed!;
#X msg 12 290 \; pd quit;
#X obj 12 220 t b b;
#X obj 84 289 print test;
#X msg 84 256 pass!;
#X obj 12 172 del 200 1 msec;
#X obj 176 8 loadbang;
#X connect 1 0 4 0;
#X connect 2 0 15 0;
#X connect 3 0 5 0;
#X connect 6 0 0 0;
#X connect 7 0 16 0;
#X connect 9 0 10 0;
#X connect 11 0 13 0;
#X connect 12 0 13 0;
#X connect 14 0 2 0;
#X connect 14 1 1 0;
#X connect 14 2 7 0;
#X connect 15 0 17 0;
#X connect 15 1 3 0;
#X connect 16 0 8 0;
#X connect 16 1 19 0;
#X connect 17 0 24 0;
#X connect 17 1 12 0;
#X connect 17 2 11 0;
#X connect 17 3 9 0;
#X connect 19 0 18 0;
#X connect 21 0 20 0;
#X connect 21 1 23 0;
#X connect 23 0 22 0;
#X connect 24 0 21 0;
#X connect 25 0 14 0;
