#N canvas 361 103 1346 686 12;
#X msg 7 32 start;
#X msg 66 91 stop;
#X msg 32 60 port 8080;
#X obj 7 238 server 8090;
#X msg 225 57 ssl \$1;
#X obj 225 24 tgl 20 0 empty empty empty 0 -10 0 12 #fcfcfc #000000 #000000 0 1;
#N canvas 92 192 1244 225 SSL_WINDOWS 0;
#X text 7 66 Run openssl req -newkey rsa:4096 -nodes -keyout key.pem -x509 -days 365 -out cert.pem from Mingw64 terminal., f 85;
#X text 7 30 REQUIRES MINGW64;
#X restore 224 140 pd SSL_WINDOWS;
#N canvas 0 0 1282 175 SSL_LINUX 0;
#X text 18 13 Run openssl req -newkey rsa:4096 -nodes -keyout key.pem -x509 -days 365 -out cert.pem from terminal., f 85;
#X restore 224 166 pd SSL_LINUX;
#N canvas 142 242 1332 149 SSL_MAC 0;
#X text 17 14 I BELIEVE that is same that Linux 'openssl req -newkey rsa:4096 -nodes -keyout key.pem -x509 -days 365 -out cert.pem'., f 85;
#X restore 224 191 pd SSL_MAC;
#X text 329 137 SSL requires certificates \, see how to generate certificates on your OS., f 35;
#X text 280 50 To access microphones \, cameras \, and other devices from smartphones/tablets via JavaScript \, SSL is required.;
#X text 6 266 WARNING: To avoid mess \, only what is inside a folder called public (inside the pd Patch folder) will be made available via the server. Inside this folder \, you need to put some index.html.;
#X connect 0 0 3 0;
#X connect 1 0 3 0;
#X connect 2 0 3 0;
#X connect 4 0 3 0;
#X connect 5 0 4 0;
